# generated from PmQm by Jehee Lee
:FULLY-SPECIFIED
:DEGREES
528
root -41.2994571 40.1843 -60.61422874 -179.5685271 4.15525425 -178.3302103
RightUpLeg -8.545937973 3.312527961 3.202303466
RightLeg 6.100323348 0 0
RightFoot 0.1864428795 11.3209365 -0.7196416776
RightToes 1.16414e-010 -1.59028e-015 9.93923e-017
Spine -12.8119 -0.206633 3.21064
Spine1 14.6346 0.257431 -3.27034
HEad -5.03184 1.6135 0.969543
LeftShoulder1 9.93923e-017 0 1.22299e-017
LeftArm 17.098 34.7919 -79.4605
LeftForeArm -31.2076 -17.9952 -0.170191
LeftHand 0.821202 5.56804 -2.8502
RightShoulder 1.98785e-016 -4.96962e-017 1.55301e-017
RightArm 26.9184 -50.594 85.8757
RightForeArm -48.2173 19.9742 -13.0791
RightHand 0.946497 -9.37657 -3.14678
LeftUpLeg -10.11654603 -0.9398945001 3.421069198
LeftLeg 7.041548838 0 0
LeftFoot 3.757012101 -0.4178328511 0.2292474495
LeftToes 3.91108e-011 -1.31389e-011 5.36976e-012
529
root -41.29995619 40.1653 -60.71518357 -179.6007402 4.639011146 -178.4505982
RightUpLeg -8.798358426 3.638822016 3.007892001
RightLeg 6.94684262 0 0
RightFoot -0.1425791453 11.67011404 -1.216204862
RightToes 1.16414e-010 -1.59028e-015 9.93923e-017
Spine -12.6158 -0.0287683 3.34646
Spine1 14.596 0.441799 -3.34066
HEad -5.84945 1.72158 1.23973
LeftShoulder1 9.93923e-017 0 1.22299e-017
LeftArm 11.76 36.0662 -79.7411
LeftForeArm -24.6444 -14.5124 -3.59698
LeftHand 0.870747 5.90316 -3.83709
RightShoulder 1.98785e-016 -4.96962e-017 1.55301e-017
RightArm 27.9148 -48.8919 86.191
RightForeArm -49.7834 20.1246 -14.8324
RightHand 0.954919 -9.37883 -3.45376
LeftUpLeg -10.01306316 -1.002587067 3.402798031
LeftLeg 7.529309786 0 0
LeftFoot 2.876221378 0.03205342435 -0.1831686493
LeftToes 3.91108e-011 -1.31389e-011 5.36976e-012
530
root -41.30000151 40.1518 -60.80360838 -179.6971 4.903236881 -178.5184016
RightUpLeg -8.876979276 3.709256456 2.886445801
RightLeg 7.492142062 0 0
RightFoot -0.6428902832 11.87087497 -1.346142261
RightToes 1.16414e-010 -1.59028e-015 9.93923e-017
Spine -12.4911 -0.0690625 3.65015
Spine1 14.6763 0.451103 -3.65582
HEad -6.60129 1.98199 1.473
LeftShoulder1 9.93923e-017 0 1.22299e-017
LeftArm 10.7923 37.4873 -79.899
LeftForeArm -21.7179 -12.3593 -5.35486
LeftHand 0.92614 6.34477 -5.00202
RightShoulder 1.98785e-016 -4.96962e-017 1.55301e-017
RightArm 28.158 -47.0417 86.6365
RightForeArm -50.9898 20.2254 -16.2068
RightHand 0.967975 -9.4297 -3.70399
LeftUpLeg -9.828293388 -1.029888747 3.411369887
LeftLeg 7.868572907 0 0
LeftFoot 2.148702336 0.2004862774 -0.5911912084
LeftToes 3.91108e-011 -1.31389e-011 5.36976e-012
531
root -41.30079365 40.1563 -60.88713139 -179.6998352 4.927693715 -178.5515758
RightUpLeg -8.787617557 3.657222976 2.847865265
RightLeg 7.495994905 0 0
RightFoot -0.7007434781 11.98539946 -1.465356716
RightToes 1.16414e-010 -1.59028e-015 9.93923e-017
Spine -12.6873 -0.180404 3.94036
Spine1 14.8476 0.383797 -3.96374
HEad -6.94273 2.11594 1.61056
LeftShoulder1 9.93923e-017 0 1.22299e-017
LeftArm 12.0689 39.0138 -79.9617
LeftForeArm -22.0793 -11.4414 -6.2357
LeftHand 0.976072 6.84354 -5.65252
RightShoulder 1.98785e-016 -4.96962e-017 1.55301e-017
RightArm 28.3706 -45.5506 87.0412
RightForeArm -52.3868 20.3611 -17.5891
RightHand 0.98868 -9.52283 -4.02565
LeftUpLeg -9.624523661 -0.9624930879 3.381538203
LeftLeg 7.815606157 0 0
LeftFoot 1.654903644 0.1059176008 -0.9645609712
LeftToes 3.91108e-011 -1.31389e-011 5.36976e-012
532
root -41.30502188 40.1662 -60.96002212 -179.6451094 4.799755435 -178.5849801
RightUpLeg -8.622321097 3.635751557 2.803575133
RightLeg 7.307320418 0 0
RightFoot -0.5686152851 11.98332148 -1.577075631
RightToes 1.16414e-010 -1.59028e-015 9.93923e-017
Spine -13.1009 -0.231077 4.02931
Spine1 15.0982 0.337717 -4.04351
HEad -6.93107 1.90758 1.6448
LeftShoulder1 9.93923e-017 0 1.22299e-017
LeftArm 9.8327 40.6236 -79.7092
LeftForeArm -21.4317 -10.3167 -6.80824
LeftHand 1.01179 7.23555 -5.65378
RightShoulder 1.98785e-016 -4.96962e-017 1.55301e-017
RightArm 28.4089 -44.6108 87.2686
RightForeArm -53.4671 20.5668 -18.9074
RightHand 1.01228 -9.61797 -4.41989
LeftUpLeg -9.49230538 -0.873895699 3.316928752
LeftLeg 7.657887844 0 0
LeftFoot 1.324093183 -0.1085490304 -1.305978598
LeftToes 3.91108e-011 -1.31389e-011 5.36976e-012
533
root -41.31254004 40.1723 -61.01371933 -179.6120295 4.695390511 -178.5918739
RightUpLeg -8.44889777 3.583619755 2.778373786
RightLeg 7.113036902 0 0
RightFoot -0.6143348294 11.96232534 -1.489193991
RightToes 1.16414e-010 -1.59028e-015 9.93923e-017
Spine -13.4419 -0.152206 4.05736
Spine1 15.3435 0.389826 -3.96188
HEad -6.95419 1.4337 1.59393
LeftShoulder1 9.93923e-017 0 1.22299e-017
LeftArm 3.74581 42.1894 -79.1244
LeftForeArm -17.6979 -8.90256 -6.89726
LeftHand 1.02066 7.32812 -5.40426
RightShoulder 1.98785e-016 -4.96962e-017 1.55301e-017
RightArm 28.112 -44.089 87.27
RightForeArm -53.8073 20.8561 -19.8724
RightHand 1.03141 -9.69017 -4.74488
LeftUpLeg -9.449274329 -0.8248395309 3.293900099
LeftLeg 7.675264304 0 0
LeftFoot 1.098441599 -0.227691569 -1.579708762
LeftToes 3.91108e-011 -1.31389e-011 5.36976e-012
534
root -41.32173641 40.1762 -61.0441645 -179.5751563 4.735025393 -178.5831256
RightUpLeg -8.377728076 3.494658701 2.78269064
RightLeg 6.953491613 0 0
RightFoot -0.6719085038 12.06412031 -1.368983617
RightToes 1.16414e-010 -1.59028e-015 9.93923e-017
Spine -13.5729 0.0756012 4.22994
Spine1 15.4548 0.59923 -3.94559
HEad -7.22958 0.929745 1.52769
LeftShoulder1 9.93923e-017 0 1.22299e-017
LeftArm 0.820627 43.3428 -78.58
LeftForeArm -15.092 -8.91437 -6.37369
LeftHand 1.00383 7.14766 -5.27577
RightShoulder 1.98785e-016 -4.96962e-017 1.55301e-017
RightArm 27.7546 -43.8323 87.1504
RightForeArm -53.6312 21.1215 -20.3371
RightHand 1.03937 -9.7187 -4.88276
LeftUpLeg -9.463401732 -0.8085648645 3.296161051
LeftLeg 7.786516404 0 0
LeftFoot 0.9393325098 -0.1460616199 -1.725929801
LeftToes 3.91108e-011 -1.31389e-011 5.36976e-012
535
root -41.33305656 40.1794 -61.0526107 -179.5015781 4.791640297 -178.6087094
RightUpLeg -8.44061878 3.47877739 2.745449411
RightLeg 6.893896812 0 0
RightFoot -0.563147104 12.16323784 -1.427008825
RightToes 1.16414e-010 -1.59028e-015 9.93923e-017
Spine -13.6088 0.354023 4.41664
Spine1 15.4846 0.877866 -3.98479
HEad -7.61211 0.511306 1.51001
LeftShoulder1 9.93923e-017 0 1.22299e-017
LeftArm 3.57372 43.7869 -78.198
LeftForeArm -16.1609 -10.3936 -5.69175
LeftHand 0.982004 6.91688 -5.25898
RightShoulder 1.98785e-016 -4.96962e-017 1.55301e-017
RightArm 27.755 -43.7547 87.1048
RightForeArm -53.5029 21.1568 -20.3872
RightHand 1.03206 -9.67328 -4.84531
LeftUpLeg -9.490943456 -0.8042574744 3.238250956
LeftLeg 7.773364449 0 0
LeftFoot 0.8577139269 -0.04824675995 -1.741694322
LeftToes 3.91108e-011 -1.31389e-011 5.36976e-012
536
root -41.3481532 40.1821 -61.04054588 -179.4278284 4.641078154 -178.6599071
RightUpLeg -8.515971095 3.521513765 2.656503862
RightLeg 6.861407138 0 0
RightFoot -0.4238017563 12.01917783 -1.508452959
RightToes 1.16414e-010 -1.59028e-015 9.93923e-017
Spine -13.6874 0.510542 4.30108
Spine1 15.5811 1.00603 -3.79952
HEad -7.87801 0.164538 1.50111
LeftShoulder1 9.93923e-017 0 1.22299e-017
LeftArm 8.67509 43.7738 -77.903
LeftForeArm -19.6747 -12.3423 -4.86941
LeftHand 0.968351 6.77015 -5.32823
RightShoulder 1.98785e-016 -4.96962e-017 1.55301e-017
RightArm 28.0947 -43.7666 87.1791
RightForeArm -53.593 20.9391 -20.0665
RightHand 1.01636 -9.57529 -4.76288
LeftUpLeg -9.500459577 -0.7970766449 3.114174562
LeftLeg 7.565023851 0 0
LeftFoot 0.93399272 -0.1933010189 -1.698118362
LeftToes 3.91108e-011 -1.31389e-011 5.36976e-012
537
root -41.36629526 40.1869 -61.01173963 -179.3698518 4.291713131 -178.6974656
RightUpLeg -8.52754808 3.507303819 2.578076897
RightLeg 6.704486811 0 0
RightFoot -0.3205560756 11.67642744 -1.433838333
RightToes 1.16414e-010 -1.59028e-015 9.93923e-017
Spine -13.771 0.490962 3.88645
Spine1 15.6918 0.91253 -3.35091
HEad -7.98299 -0.0715598 1.42419
LeftShoulder1 9.93923e-017 0 1.22299e-017
LeftArm 12.4047 43.6845 -77.6313
LeftForeArm -22.6971 -13.9653 -3.90617
LeftHand 0.956484 6.63156 -5.58776
RightShoulder 1.98785e-016 -4.96962e-017 1.55301e-017
RightArm 28.4044 -43.8567 87.2626
RightForeArm -53.6082 20.6698 -19.3455
RightHand 1.00899 -9.52443 -4.74603
LeftUpLeg -9.504613432 -0.7754831629 2.976494346
LeftLeg 7.238983117 0 0
LeftFoot 1.192181472 -0.556674045 -1.658463188
LeftToes 3.91108e-011 -1.31389e-011 5.36976e-012
538
root -41.38427424 40.1947 -60.97635806 -179.2883176 3.928729837 -178.7296382
RightUpLeg -8.551652947 3.447063891 2.516728682
RightLeg 6.468322198 0 0
RightFoot -0.1451267962 11.3520327 -1.315875495
RightToes 1.16414e-010 -1.59028e-015 9.93923e-017
Spine -13.7861 0.40047 3.53629
Spine1 15.6702 0.770518 -3.02742
HEad -8.00876 -0.126384 1.32486
LeftShoulder1 9.93923e-017 0 1.22299e-017
LeftArm 14.6693 43.5609 -77.3977
LeftForeArm -24.398 -15.1744 -2.93463
LeftHand 0.942342 6.45368 -5.94561
RightShoulder 1.98785e-016 -4.96962e-017 1.55301e-017
RightArm 28.4759 -44.1412 87.3369
RightForeArm -53.3412 20.4805 -18.3662
RightHand 1.01641 -9.57579 -4.76236
LeftUpLeg -9.546418741 -0.7460349632 2.83757303
LeftLeg 6.902380789 0 0
LeftFoot 1.519793603 -0.9320129018 -1.615894457
LeftToes 3.91108e-011 -1.31389e-011 5.36976e-012
539
root -41.40103678 40.2013 -60.94028676 -179.1712827 3.591249732 -178.7741932
RightUpLeg -8.651693193 3.433732615 2.435608658
RightLeg 6.314398958 0 0
RightFoot 0.08053004238 11.05277475 -1.283848047
RightToes 1.16414e-010 -1.59028e-015 9.93923e-017
Spine -13.8334 0.321749 3.41438
Spine1 15.612 0.700658 -3.01741
HEad -8.0023 -0.0758794 1.31332
LeftShoulder1 9.93923e-017 0 1.22299e-017
LeftArm 16.4795 43.2666 -77.2652
LeftForeArm -25.7089 -16.0738 -2.12018
LeftHand 0.934649 6.34919 -6.16843
RightShoulder 1.98785e-016 -4.96962e-017 1.55301e-017
RightArm 28.1721 -44.6717 87.4642
RightForeArm -52.6681 20.3557 -17.306
RightHand 1.02485 -9.64658 -4.72214
LeftUpLeg -9.649246979 -0.7254770823 2.689922804
LeftLeg 6.617708489 0 0
LeftFoot 1.803264951 -1.279689938 -1.538761196
LeftToes 3.91108e-011 -1.31389e-011 5.36976e-012
540
root -41.41823958 40.2039 -60.90088457 -179.0519193 3.200088617 -178.8074121
RightUpLeg -8.777259154 3.454365851 2.350313516
RightLeg 6.235991958 0 0
RightFoot 0.2226552418 10.67376616 -1.276842685
RightToes 1.16414e-010 -1.59028e-015 9.93923e-017
Spine -14.0384 0.236452 3.25998
Spine1 15.713 0.610943 -2.95329
HEad -7.935 -0.0828577 1.34761
LeftShoulder1 9.93923e-017 0 1.22299e-017
LeftArm 17.1773 42.8411 -77.3209
LeftForeArm -26.5634 -16.5639 -1.62248
LeftHand 0.931712 6.37003 -6.25792
RightShoulder 1.98785e-016 -4.96962e-017 1.55301e-017
RightArm 27.4956 -45.3387 87.5711
RightForeArm -51.6062 20.2531 -16.2192
RightHand 1.02174 -9.64321 -4.63078
LeftUpLeg -9.798693239 -0.7147900827 2.556141884
LeftLeg 6.390180795 0 0
LeftFoot 2.042852902 -1.682266983 -1.43747343
LeftToes 3.91108e-011 -1.31389e-011 5.36976e-012
